<?xml version="1.0" encoding="UTF-8" standalone="no"?>
<svg width="100px" height="103px" viewBox="0 0 100 103" version="1.1" xmlns="http://www.w3.org/2000/svg" xmlns:xlink="http://www.w3.org/1999/xlink" xmlns:sketch="http://www.bohemiancoding.com/sketch/ns">
    <!-- Generator: Sketch 3.4.4 (17249) - http://www.bohemiancoding.com/sketch -->
    <title>github</title>
    <desc>Created with Sketch.</desc>
    <defs></defs>
    <g id="Page-1" stroke="none" stroke-width="1" fill="none" fill-rule="evenodd" sketch:type="MSPage">
        <g id="github" sketch:type="MSArtboardGroup" fill="#FFFFFF">
            <path d="M49.9953958,3 C22.3855858,3 0,25.3855858 0,53.0015347 C0,75.0924522 14.3251788,93.8315172 34.1938058,100.446208 C36.6954173,100.903558 37.6070475,99.3596182 37.6070475,98.0336106 C37.6070475,96.8487983 37.564075,93.7025998 37.5395193,89.5312011 C23.6317873,92.5515516 20.6973817,82.8274962 20.6973817,82.8274962 C18.4229105,77.0538384 15.1447251,75.5129685 15.1447251,75.5129685 C10.6049909,72.4128119 15.4885049,72.4742012 15.4885049,72.4742012 C20.5070751,72.8271893 23.1468124,77.6278277 23.1468124,77.6278277 C27.6067405,85.2677185 34.8506707,83.0607753 37.6991313,81.7838792 C38.1534117,78.5517358 39.4425857,76.3478621 40.872955,75.0985911 C29.7707112,73.8370423 18.0975475,69.5459345 18.0975475,50.3863532 C18.0975475,44.9288499 20.0466558,40.4658522 23.2450351,36.9697351 C22.7293655,35.7051168 21.0135363,30.6220878 23.7330796,23.7372848 C23.7330796,23.7372848 27.9321035,22.3928604 37.484269,28.8632862 C41.4715,27.7521409 45.75033,27.1996378 50.0015347,27.181221 C54.2466006,27.1996378 58.5254305,27.7521409 62.5188005,28.8632862 C72.064827,22.3928604 76.2546426,23.7372848 76.2546426,23.7372848 C78.9833942,30.6220878 77.267565,35.7051168 76.7518954,36.9697351 C79.9564136,40.4658522 81.8932441,44.9288499 81.8932441,50.3863532 C81.8932441,69.5950459 70.2016636,73.821695 59.0625863,75.0586881 C60.8582216,76.6026275 62.4574112,79.6536726 62.4574112,84.3192547 C62.4574112,91.0014733 62.396022,96.3945179 62.396022,98.0336106 C62.396022,99.371896 63.2953743,100.928113 65.8338193,100.440069 C85.6870991,93.8131005 100,75.0863133 100,53.0015347 C100,25.3855858 77.6113447,3 49.9953958,3" id="Fill-1" sketch:type="MSShapeGroup"></path>
        </g>
    </g>
</svg>