<?xml version="1.0" encoding="UTF-8" standalone="no"?>
<svg width="100px" height="103px" viewBox="0 0 100 103" version="1.1" xmlns="http://www.w3.org/2000/svg" xmlns:xlink="http://www.w3.org/1999/xlink" xmlns:sketch="http://www.bohemiancoding.com/sketch/ns">
    <!-- Generator: Sketch 3.4.4 (17249) - http://www.bohemiancoding.com/sketch -->
    <title>plus</title>
    <desc>Created with Sketch.</desc>
    <defs></defs>
    <g id="Page-1" stroke="none" stroke-width="1" fill="none" fill-rule="evenodd" sketch:type="MSPage">
        <g id="plus" sketch:type="MSArtboardGroup" fill="#FFFFFF">
            <g id="Plus" sketch:type="MSLayerGroup">
                <path d="M88.8184605,38.9285714 C94.9331636,38.9285714 99.8901099,43.997085 99.8901099,50.347619 L99.8901099,50.347619 C99.8901099,56.6541849 94.9365438,61.7666667 88.8184605,61.7666667 L11.0716494,61.7666667 C4.95694627,61.7666667 0,56.6981531 0,50.347619 L0,50.347619 C0,44.0410532 4.95356608,38.9285714 11.0716494,38.9285714 L88.8184605,38.9285714 L88.8184605,38.9285714 Z" id="Rectangle-52-Copy-27" sketch:type="MSShapeGroup"></path>
                <path d="M61.043956,91.3804188 C61.043956,97.6714998 56.1175443,102.771429 49.9450549,102.771429 L49.9450549,102.771429 C43.8153011,102.771429 38.8461538,97.6749774 38.8461538,91.3804188 L38.8461538,11.3910098 C38.8461538,5.09992881 43.7725656,0 49.9450549,0 L49.9450549,0 C56.0748088,0 61.043956,5.09645112 61.043956,11.3910098 L61.043956,91.3804188 L61.043956,91.3804188 Z" id="Rectangle-52-Copy-26" sketch:type="MSShapeGroup"></path>
            </g>
        </g>
    </g>
</svg>