<?xml version="1.0" encoding="UTF-8" standalone="no"?>
<svg width="220px" height="56px" viewBox="0 0 220 56" version="1.1" xmlns="http://www.w3.org/2000/svg" xmlns:xlink="http://www.w3.org/1999/xlink" xmlns:sketch="http://www.bohemiancoding.com/sketch/ns">
    <!-- Generator: Sketch 3.4.4 (17249) - http://www.bohemiancoding.com/sketch -->
    <title>source_logo</title>
    <desc>Created with Sketch.</desc>
    <defs>
        <path id="path-1" d="M0,0.387519989 L217.228121,0.387519989 L217.228121,48.4399986 L0,48.4399986"></path>
        <path id="path-3" d="M0,0.387519989 L217.228121,0.387519989 L217.228121,48.4399986 L0,48.4399986"></path>
        <path id="path-5" d="M0,0.387519989 L217.228121,0.387519989 L217.228121,48.4399986 L0,48.4399986 L0,0.387519989 Z"></path>
        <path id="path-7" d="M0,0.387519989 L217.228121,0.387519989 L217.228121,48.4399986 L0,48.4399986 L0,0.387519989 Z"></path>
        <path id="path-9" d="M0,0.387519989 L217.228121,0.387519989 L217.228121,48.4399986 L0,48.4399986 L0,0.387519989 Z"></path>
        <path id="path-11" d="M0,0.387519989 L217.228121,0.387519989 L217.228121,48.4399986 L0,48.4399986 L0,0.387519989 Z"></path>
    </defs>
    <g id="Page-1" stroke="none" stroke-width="1" fill="none" fill-rule="evenodd" sketch:type="MSPage">
        <g id="source_logo" sketch:type="MSArtboardGroup">
            <g id="Group" sketch:type="MSLayerGroup" transform="translate(1.000000, 4.000000)">
                <mask id="mask-2" sketch:name="Clip 2" fill="white">
                    <use xlink:href="#path-1"></use>
                </mask>
                <g id="Clip-2"></g>
                <path d="M27.8408892,23.1257819 C24.9492319,21.0607637 21.582652,20.1941089 18.382453,19.4822515 C15.1317078,18.7598637 13.5015966,18.3576011 11.959941,17.1244873 C11.330221,16.6295568 10.2740184,15.5491343 10.2740184,13.8779543 C10.2740184,12.5332178 10.9584966,11.3601274 12.1526479,10.6577474 C13.4373609,9.90166224 14.7978931,9.59312051 16.8481687,9.59312051 C20.2179077,9.59312051 23.8824989,10.4502979 27.1669414,12.0066961 L28.6517327,12.7101291 L32.2773613,4.20469719 L30.8926091,3.55812851 C26.4466597,1.48363291 21.5900233,0.387414685 16.8481687,0.387414685 C12.6370479,0.387414685 9.19570191,1.34779031 6.33142373,3.32329982 C2.7531821,5.79058062 0.701853458,9.63734834 0.701853458,13.8779543 C0.701853458,17.9458611 2.69631775,21.8084245 6.1755733,24.4757836 C9.14304974,26.7503574 12.5464862,27.6317548 15.7782765,28.3394 C18.6783582,28.9733321 20.7075729,29.4819521 22.4050789,30.715066 C23.6339806,31.6385851 24.3395197,32.9812155 24.3395197,34.4007181 C24.3395197,35.0388624 24.1699797,36.6447537 22.5988389,37.8020484 C21.290959,38.7655832 19.4102234,39.2341875 16.8481687,39.2341875 C12.8550279,39.2341875 8.87136453,38.3664797 5.32682028,36.7226789 L3.89784032,36.0603145 L0.000526521724,44.4130552 L1.42529431,45.0838439 C6.09238287,47.2794394 11.4260479,48.4398933 16.8481687,48.4398933 C21.4973555,48.4398933 25.243031,47.3857968 28.2989631,45.2175804 C31.8129691,42.7218674 33.9116847,38.6802866 33.9116847,34.4007181 C33.9116847,29.9726704 31.6992404,25.8636948 27.8408892,23.1257819" id="Fill-1" fill="#4E9DCE" sketch:type="MSShapeGroup" mask="url(#mask-2)"></path>
                <mask id="mask-4" sketch:name="Clip 5" fill="white">
                    <use xlink:href="#path-3"></use>
                </mask>
                <g id="Clip-5"></g>
                <path d="M55.6919929,39.2340822 C52.3380496,39.2340822 49.6159322,37.9219901 48.0279427,35.5400058 C46.2777845,32.9147685 46.2777845,28.7847321 46.2777845,24.4135487 C46.2777845,20.0413123 46.2777845,15.913382 48.0279427,13.2881447 C49.6148792,10.9061604 52.3369965,9.59406825 55.6919929,9.59406825 C59.0469894,9.59406825 61.7691067,10.9061604 63.3560432,13.2881447 C65.1072544,15.913382 65.1072544,20.0413123 65.1072544,24.4135487 C65.1072544,28.7847321 65.1072544,32.9147685 63.3560432,35.5400058 C61.7680536,37.9219901 59.0459363,39.2340822 55.6919929,39.2340822 M55.6919929,0.38730938 C48.7387471,0.38730938 42.8701359,3.50326494 39.5888525,8.93696914 C36.7045665,13.7125212 36.7045665,19.1525436 36.7045665,24.4135487 C36.7045665,29.6745538 36.7045665,35.1156293 39.5888525,39.8890752 C42.8701359,45.3227794 48.7387471,48.439788 55.6919929,48.439788 C62.6452388,48.439788 68.51385,45.3227794 71.7951334,39.8890752 C74.6794194,35.1156293 74.6794194,29.6745538 74.6794194,24.4135487 C74.6794194,19.1525436 74.6794194,13.7125212 71.7951334,8.93802218 C68.51385,3.50326494 62.6452388,0.38730938 55.6919929,0.38730938" id="Fill-4" fill="#4E9DCE" sketch:type="MSShapeGroup" mask="url(#mask-4)"></path>
                <mask id="mask-6" sketch:name="Clip 8" fill="white">
                    <use xlink:href="#path-5"></use>
                </mask>
                <g id="Clip-8"></g>
                <path d="M104.500136,25.9713159 C104.500136,31.3155114 104.500136,34.8463661 102.305593,37.0398556 C100.890303,38.4540929 98.814754,39.2343981 96.4590958,39.2343981 C94.1044906,39.2343981 92.027889,38.4540929 90.6125986,37.0398556 C88.4191091,34.8463661 88.4191091,31.3155114 88.4191091,25.9713159 L88.4191091,0.937313973 L78.8458911,0.937313973 L78.8458911,25.9713159 C78.8458911,32.6054896 78.8458911,38.334046 83.5930109,43.2822971 C85.0820144,44.8334301 89.3163021,48.4401039 96.4590958,48.4401039 C103.602943,48.4401039 107.83723,44.8334301 109.326234,43.2812441 C114.072301,38.334046 114.072301,32.6054896 114.072301,25.9713159 L114.072301,0.937313973 L104.500136,0.937313973 L104.500136,25.9713159 Z" id="Fill-7" fill="#4E9DCE" sketch:type="MSShapeGroup" mask="url(#mask-6)"></path>
                <mask id="mask-8" sketch:name="Clip 11" fill="white">
                    <use xlink:href="#path-7"></use>
                </mask>
                <g id="Clip-11"></g>
                <path d="M144.253579,1.48342231 C142.174871,0.755769283 139.903456,0.387204076 137.501464,0.387204076 C131.671816,0.387204076 126.458198,2.59438314 123.194816,6.4422039 C119.155341,11.1903768 119.155341,15.8227149 119.155341,23.4972956 L119.155341,47.8910471 L128.727506,47.8910471 L128.727506,23.4972956 C128.727506,18.0562201 128.727506,14.4621828 130.565067,12.3181863 C131.954031,10.637529 134.611913,9.59396295 137.501464,9.59396295 C138.797761,9.59396295 140.103535,9.81510207 141.275572,10.2342134 L142.796167,10.7775838 L145.722574,1.99730751 L144.253579,1.48342231 Z" id="Fill-10" fill="#4E9DCE" sketch:type="MSShapeGroup" mask="url(#mask-8)"></path>
                <mask id="mask-10" sketch:name="Clip 14" fill="white">
                    <use xlink:href="#path-9"></use>
                </mask>
                <g id="Clip-14"></g>
                <path d="M173.527976,36.4883767 C170.915375,38.2848688 167.802579,39.233661 164.527614,39.233661 C161.540129,39.233661 159.164463,38.314354 157.660717,36.5736732 C155.113405,33.6283107 155.113405,28.5378987 155.113405,24.0477214 C155.113405,20.3125763 155.113405,15.1968912 157.572262,12.3399843 C159.134978,10.5171661 161.474841,9.59364703 164.527614,9.59364703 C167.476135,9.59364703 170.607887,10.5055827 173.119395,12.0967313 L174.490458,12.9644391 L179.223888,5.02975673 L177.925485,4.20627675 C173.98605,1.70740465 169.352659,0.386888163 164.527614,0.386888163 C157.013096,0.386888163 152.604003,3.67554285 150.234655,6.42714538 C145.540187,11.8208339 145.540187,19.1784485 145.540187,24.0477214 C145.540187,29.5593508 145.540187,37.1086193 150.3368,42.505467 C152.744057,45.2117886 157.160522,48.4404198 164.527614,48.4404198 C169.533782,48.4404198 174.530473,46.9472042 178.597327,44.2345643 L179.890465,43.3731748 L174.870606,35.5659106 L173.527976,36.4883767 Z" id="Fill-13" fill="#4E9DCE" sketch:type="MSShapeGroup" mask="url(#mask-10)"></path>
                <mask id="mask-12" sketch:name="Clip 17" fill="white">
                    <use xlink:href="#path-11"></use>
                </mask>
                <g id="Clip-17"></g>
                <path d="M206.07976,17.9345936 C204.579174,19.0771457 202.134007,19.0771457 196.775069,19.0771457 L189.954506,19.0771457 C190.040856,17.1090075 190.393625,14.2879041 191.833136,12.6188303 L191.84156,12.6072468 C193.510634,10.6359494 196.35701,9.59343642 200.073201,9.59343642 C202.573126,9.59343642 204.624454,10.1483903 205.867046,11.1719486 C206.869543,11.9733146 207.589825,13.3896581 207.656166,14.6101354 C207.656166,16.4466432 206.6642,17.483891 206.07976,17.9345936 L206.07976,17.9345936 Z M210.056052,36.7598513 C207.032765,38.3552121 203.324999,39.2345034 199.615127,39.2345034 C195.903149,39.2345034 193.322139,38.183566 191.721513,36.024827 C190.278843,34.0798557 189.995575,30.4121054 189.939763,27.9163924 L196.775069,27.9163924 C203.369227,27.9163924 207.725667,27.9163924 211.985228,24.8741499 C215.317058,22.4953248 217.228331,18.7538614 217.228331,14.5701198 C217.125133,10.5854034 215.24861,6.78496955 212.054729,4.12287571 C208.955622,1.64401143 204.924572,0.386677554 200.073201,0.386677554 C193.00412,0.386677554 187.091281,3.00033139 183.857385,7.54947909 C180.261241,12.5430111 180.261241,17.2648579 180.261241,24.4129169 C180.261241,30.5679558 180.261241,36.3818087 184.055357,41.5733129 C187.35033,46.0013606 192.876702,48.4402092 199.615127,48.4402092 C204.806631,48.4402092 209.838072,47.271331 214.168187,45.0609928 L215.544515,44.3586128 L211.502934,35.9953418 L210.056052,36.7598513 Z" id="Fill-16" fill="#4E9DCE" sketch:type="MSShapeGroup" mask="url(#mask-12)"></path>
            </g>
        </g>
    </g>
</svg>