<?xml version="1.0" encoding="UTF-8" standalone="no"?>
<svg width="100px" height="103px" viewBox="0 0 100 103" version="1.1" xmlns="http://www.w3.org/2000/svg" xmlns:xlink="http://www.w3.org/1999/xlink" xmlns:sketch="http://www.bohemiancoding.com/sketch/ns">
    <!-- Generator: Sketch 3.4.4 (17249) - http://www.bohemiancoding.com/sketch -->
    <title>close</title>
    <desc>Created with Sketch.</desc>
    <defs></defs>
    <g id="Page-1" stroke="none" stroke-width="1" fill="none" fill-rule="evenodd" sketch:type="MSPage">
        <g id="close" sketch:type="MSArtboardGroup" fill="#FFFFFF">
            <g id="Plus" sketch:type="MSLayerGroup" transform="translate(50.000000, 51.500000) rotate(-270.000000) translate(-50.000000, -51.500000) translate(1.000000, 2.000000)">
                <path d="M96.056223,96.0506149 C93.677868,98.4289698 89.8817237,98.4889007 87.57445,96.181627 L1.70031268,10.5557392 C-0.605686264,8.24974026 -0.56361161,4.4689026 1.83132477,2.07396622 C4.20967969,-0.304388707 8.00582406,-0.364319564 10.3130978,1.94295413 L96.187235,87.5688419 C98.493234,89.8748409 98.4511593,93.6556785 96.056223,96.0506149 Z" id="Rectangle-52-Copy-27" sketch:type="MSShapeGroup"></path>
                <path d="M96.056223,96.0506149 C93.677868,98.4289698 89.8817237,98.4889007 87.57445,96.181627 L1.70031268,10.5557392 C-0.605686264,8.24974026 -0.56361161,4.4689026 1.83132477,2.07396622 C4.20967969,-0.304388707 8.00582406,-0.364319564 10.3130978,1.94295413 L96.187235,87.5688419 C98.493234,89.8748409 98.4511593,93.6556785 96.056223,96.0506149 Z" id="Rectangle-52-Copy-27" sketch:type="MSShapeGroup" transform="translate(48.943774, 49.062291) rotate(-270.000000) translate(-48.943774, -49.062291) "></path>
            </g>
        </g>
    </g>
</svg>