<?xml version="1.0" encoding="UTF-8" standalone="no"?>
<svg width="100px" height="103px" viewBox="0 0 100 103" version="1.1" xmlns="http://www.w3.org/2000/svg" xmlns:xlink="http://www.w3.org/1999/xlink" xmlns:sketch="http://www.bohemiancoding.com/sketch/ns">
    <!-- Generator: Sketch 3.4.4 (17249) - http://www.bohemiancoding.com/sketch -->
    <title>star</title>
    <desc>Created with Sketch.</desc>
    <defs></defs>
    <g id="Page-1" stroke="none" stroke-width="1" fill="none" fill-rule="evenodd" sketch:type="MSPage">
        <g id="star" sketch:type="MSArtboardGroup" fill="#CBCED0">
            <path d="M47.8786019,72.2464792 L21.3893181,86.1727198 L29.5629265,92.1111939 L34.6219295,62.6149429 C34.9353538,60.7875395 34.3295027,58.9229218 33.0018164,57.6287474 L11.5715356,36.7393865 L8.44949504,46.3480394 L38.0654147,42.0445944 C39.9002321,41.7779798 41.4863706,40.6255827 42.3069259,38.9629561 L55.5515678,12.1263804 L45.4484322,12.1263804 L58.6930741,38.9629561 C59.5136294,40.6255827 61.0997679,41.7779798 62.9345853,42.0445944 L92.550505,46.3480394 L89.4284644,36.7393865 L67.9981836,57.6287474 C66.6704973,58.9229218 66.0646462,60.7875395 66.3780705,62.6149429 L71.4370735,92.1111939 L79.6106819,86.1727198 L53.1213981,72.2464792 C51.4802875,71.3836963 49.5197125,71.3836963 47.8786019,72.2464792 L47.8786019,72.2464792 Z M53.1213981,82.2188702 L47.8786019,82.2188702 L74.3678857,96.1451108 C78.5006161,98.3178158 83.3307754,94.8084997 82.5414941,90.2066367 L77.482491,60.7103857 L75.8623779,65.6965812 L97.2926587,44.8072203 C100.636108,41.5481629 98.7911512,35.8699701 94.1706181,35.1985673 L64.5546985,30.8951223 L68.7962097,33.9767606 L55.5515678,7.14018492 C53.4852026,2.95327169 47.5147974,2.95327169 45.4484322,7.14018492 L32.2037903,33.9767606 L36.4453015,30.8951223 L6.82938191,35.1985673 C2.20884884,35.8699701 0.36389218,41.5481629 3.70734132,44.8072203 L25.1376221,65.6965812 L23.517509,60.7103857 L18.4585059,90.2066367 C17.6692246,94.8084997 22.4993839,98.3178158 26.6321143,96.1451108 L53.1213981,82.2188702 L53.1213981,82.2188702 Z" id="Shape" sketch:type="MSShapeGroup"></path>
        </g>
    </g>
</svg>